<svg id="Layer_1" data-name="Layer 1" xmlns="http://www.w3.org/2000/svg" viewBox="0 0 599.99999 400">
  <defs>
    <style>
      .cls-1, .cls-6 {
        fill: none;
      }

      .cls-1 {
        opacity: 0.7;
      }

      .cls-2 {
        fill: #df1995;
      }

      .cls-3 {
        fill: #fff;
      }

      .cls-4 {
        fill: #666;
      }

      .cls-5 {
        fill: #231f20;
      }

      .cls-6 {
        stroke: #231f20;
        stroke-linejoin: round;
        stroke-width: 0.80184px;
      }
    </style>
  </defs>
  <rect class="cls-1" width="599.99999" height="400"/>
  <g>
    <g>
      <circle class="cls-2" cx="404.90391" cy="66.49173" r="52.1709"/>
      <g>
        <path class="cls-3" d="M398.60839,62.752h-2.63672V57.26758h-5.1416V62.752h-2.63672V49.95508h2.63672v5.18554h5.1416V49.95508h2.63672Z"/>
        <path class="cls-3" d="M400.54687,50.78125a1.254,1.254,0,0,1,.38183-.94043,1.64834,1.64834,0,0,1,2.07911,0,1.34155,1.34155,0,0,1-.00489,1.88965,1.62777,1.62777,0,0,1-2.06445,0A1.244,1.244,0,0,1,400.54687,50.78125Zm2.69824,11.9707h-2.54883V53.24219h2.54883Z"/>
        <path class="cls-3" d="M413.02245,57.52246H407.96V62.752h-2.63671V49.95508h8.332v2.13574H407.96v3.30469h5.0625Z"/>
        <path class="cls-3" d="M414.82031,50.78125a1.254,1.254,0,0,1,.38183-.94043,1.64832,1.64832,0,0,1,2.0791,0,1.34154,1.34154,0,0,1-.00488,1.88965,1.62777,1.62777,0,0,1-2.06445,0A1.244,1.244,0,0,1,414.82031,50.78125Zm2.69824,11.9707h-2.54883V53.24219h2.54883Z"/>
        <path class="cls-3" d="M389.002,73.624a6.90141,6.90141,0,0,0-.91407-.07031,1.86046,1.86046,0,0,0-1.88964.97559v6.22265h-2.54V71.24219h2.39941l.07031,1.13379a2.35354,2.35354,0,0,1,2.11817-1.30957,2.66152,2.66152,0,0,1,.791.11425Z"/>
        <path class="cls-3" d="M394.42089,80.92773a4.66569,4.66569,0,0,1-3.40527-1.2832,4.55782,4.55782,0,0,1-1.31445-3.41894v-.2461a5.74261,5.74261,0,0,1,.55371-2.56152,4.05865,4.05865,0,0,1,1.56933-1.74024,4.39952,4.39952,0,0,1,2.31543-.61132,3.94419,3.94419,0,0,1,3.07129,1.23047,4.99538,4.99538,0,0,1,1.12109,3.48925v1.03711h-6.05566a2.35538,2.35538,0,0,0,.74316,1.49414,2.24216,2.24216,0,0,0,1.56836.5625,2.74168,2.74168,0,0,0,2.29395-1.06347l1.24805,1.39746a3.80423,3.80423,0,0,1-1.54688,1.26074A5.07523,5.07523,0,0,1,394.42089,80.92773Zm-.29-7.81347a1.58984,1.58984,0,0,0-1.22656.51172,2.65328,2.65328,0,0,0-.60156,1.46582h3.5332v-.20313a1.88843,1.88843,0,0,0-.457-1.31055A1.6356,1.6356,0,0,0,394.13085,73.11426Z"/>
        <path class="cls-3" d="M405.10351,80.75195a2.8204,2.8204,0,0,1-.25488-.85254,3.07339,3.07339,0,0,1-2.39942,1.02832,3.37773,3.37773,0,0,1-2.3164-.80859,2.6001,2.6001,0,0,1-.918-2.03906,2.68542,2.68542,0,0,1,1.12109-2.32031,5.52564,5.52564,0,0,1,3.23828-.81739h1.16895v-.54492a1.56732,1.56732,0,0,0-.33887-1.05469,1.33006,1.33006,0,0,0-1.06738-.3955,1.51477,1.51477,0,0,0-1.00684.30761,1.04468,1.04468,0,0,0-.36426.84375h-2.54a2.55151,2.55151,0,0,1,.50977-1.52929A3.36867,3.36867,0,0,1,401.377,71.4668a5.25316,5.25316,0,0,1,2.09179-.40039,4.15832,4.15832,0,0,1,2.791.88281,3.09512,3.09512,0,0,1,1.03223,2.4834v4.12207a4.54634,4.54634,0,0,0,.37793,2.04785v.14941Zm-2.10059-1.7666a2.17673,2.17673,0,0,0,1.03711-.251,1.63868,1.63868,0,0,0,.70313-.67188V76.42773h-.94922q-1.90724,0-2.03027,1.31836l-.00879.14942a1.01684,1.01684,0,0,0,.334.78222A1.29731,1.29731,0,0,0,403.00292,78.98535Z"/>
        <path class="cls-3" d="M408.668,75.92676a5.72471,5.72471,0,0,1,.99805-3.542,3.23457,3.23457,0,0,1,2.72851-1.31836,2.91262,2.91262,0,0,1,2.29395,1.03711V67.25195h2.54883v13.5h-2.29395l-.123-1.01074a2.98907,2.98907,0,0,1-2.44336,1.18652,3.22552,3.22552,0,0,1-2.69336-1.32226A5.91085,5.91085,0,0,1,408.668,75.92676Zm2.54.18945a3.75468,3.75468,0,0,0,.46582,2.05078,1.5168,1.5168,0,0,0,1.35352.71289,1.69857,1.69857,0,0,0,1.66113-.99511V74.12695a1.67565,1.67565,0,0,0-1.64355-.99511Q411.208,73.13184,411.208,76.11621Z"/>
        <path class="cls-3" d="M424.17675,78.124a.81648.81648,0,0,0-.46191-.7334,5.22373,5.22373,0,0,0-1.48047-.47949q-3.39258-.71191-3.39258-2.88281a2.613,2.613,0,0,1,1.05078-2.11426,4.23888,4.23888,0,0,1,2.7461-.84765,4.56337,4.56337,0,0,1,2.89648.85254,2.68894,2.68894,0,0,1,1.085,2.21484h-2.54a1.23174,1.23174,0,0,0-.35156-.90137,1.49179,1.49179,0,0,0-1.09863-.35547,1.52025,1.52025,0,0,0-.99317.29.9156.9156,0,0,0-.35156.73828.77928.77928,0,0,0,.40039.68067,4.07537,4.07537,0,0,0,1.34863.44922,11.02255,11.02255,0,0,1,1.59961.42578,2.62807,2.62807,0,0,1,2.0127,2.55761,2.4786,2.4786,0,0,1-1.11621,2.1045,4.80841,4.80841,0,0,1-2.88282.80468,5.03862,5.03862,0,0,1-2.12207-.42578,3.55064,3.55064,0,0,1-1.45507-1.16992,2.71246,2.71246,0,0,1-.52735-1.60351h2.40821a1.326,1.326,0,0,0,.501,1.0371,1.98707,1.98707,0,0,0,1.24805.36036,1.84468,1.84468,0,0,0,1.10254-.27637A.864.864,0,0,0,424.17675,78.124Z"/>
      </g>
    </g>
    <g>
      <circle class="cls-4" cx="483.98103" cy="203.16437" r="52.1709"/>
      <g>
        <path class="cls-3" d="M465.8291,197.30664h5.59863v2.11816h-8.23535V186.62793h2.63672Z"/>
        <path class="cls-3" d="M472.19726,194.582a5.63986,5.63986,0,0,1,.54492-2.52246,3.98807,3.98807,0,0,1,1.56836-1.71387,4.579,4.579,0,0,1,2.37793-.60644,4.32923,4.32923,0,0,1,3.1416,1.17773,4.727,4.727,0,0,1,1.3584,3.19922l.01758.65039a4.97173,4.97173,0,0,1-1.22168,3.51172,4.73622,4.73622,0,0,1-6.56152.00391,5.05761,5.05761,0,0,1-1.22559-3.58594Zm2.54.18067a3.55153,3.55153,0,0,0,.50976,2.07226,1.83072,1.83072,0,0,0,2.90039.00879,3.88711,3.88711,0,0,0,.51856-2.2666,3.51963,3.51963,0,0,0-.51856-2.05957,1.685,1.685,0,0,0-1.459-.73047,1.65788,1.65788,0,0,0-1.44141.72656A3.95272,3.95272,0,0,0,474.7373,194.7627Z"/>
        <path class="cls-3" d="M484.92773,189.915l.0791,1.09863a3.3202,3.3202,0,0,1,2.7334-1.27441,2.75932,2.75932,0,0,1,2.25.88769,4.14175,4.14175,0,0,1,.75586,2.6543v6.14355h-2.54v-6.082a1.65082,1.65082,0,0,0-.35156-1.17382,1.57791,1.57791,0,0,0-1.16895-.36426,1.74742,1.74742,0,0,0-1.6084.91406v6.70605h-2.54V189.915Z"/>
        <path class="cls-3" d="M492.12206,194.59961a5.57313,5.57313,0,0,1,1.041-3.52441,3.37559,3.37559,0,0,1,2.80859-1.33594,2.95966,2.95966,0,0,1,2.43457,1.07226l.10547-.89648h2.30274v9.19336a4.06464,4.06464,0,0,1-.56739,2.1709,3.63962,3.63962,0,0,1-1.59472,1.40625,5.608,5.608,0,0,1-2.40821.4834,5.2152,5.2152,0,0,1-2.03906-.418,3.61826,3.61826,0,0,1-1.50293-1.07618l1.125-1.54687a2.97545,2.97545,0,0,0,2.30274,1.06348,2.18177,2.18177,0,0,0,1.57324-.54,2.03,2.03,0,0,0,.5625-1.53418v-.50977a2.938,2.938,0,0,1-2.31152.99317,3.36641,3.36641,0,0,1-2.77344-1.33985,5.57309,5.57309,0,0,1-1.0586-3.55566Zm2.54.18945a3.46712,3.46712,0,0,0,.51856,2.02832,1.64931,1.64931,0,0,0,1.42383.73535,1.76337,1.76337,0,0,0,1.66113-.87109v-4.00586a1.76108,1.76108,0,0,0-1.64356-.87109,1.66248,1.66248,0,0,0-1.4375.748A3.9131,3.9131,0,0,0,494.6621,194.78906Z"/>
        <path class="cls-3" d="M468.0791,210.29688a6.9,6.9,0,0,0-.91407-.07032,1.86049,1.86049,0,0,0-1.88965.97559v6.22265h-2.54V207.915h2.39941l.07031,1.13379a2.35354,2.35354,0,0,1,2.11817-1.30957,2.66119,2.66119,0,0,1,.791.11426Z"/>
        <path class="cls-3" d="M473.498,217.60059a4.6696,4.6696,0,0,1-3.40625-1.28321,4.56084,4.56084,0,0,1-1.31348-3.41894v-.2461a5.74264,5.74264,0,0,1,.55371-2.56152,4.06267,4.06267,0,0,1,1.56836-1.74023,4.40539,4.40539,0,0,1,2.31641-.61133,3.94561,3.94561,0,0,1,3.07129,1.23047,5,5,0,0,1,1.12109,3.48925v1.03711h-6.05566a2.35907,2.35907,0,0,0,.74219,1.49414,2.24626,2.24626,0,0,0,1.56933.5625,2.74168,2.74168,0,0,0,2.29395-1.06347l1.248,1.39746a3.80413,3.80413,0,0,1-1.54687,1.26074A5.07523,5.07523,0,0,1,473.498,217.60059Zm-.29-7.81348a1.58984,1.58984,0,0,0-1.22656.51172,2.65331,2.65331,0,0,0-.60156,1.46582h3.5332v-.20313a1.88839,1.88839,0,0,0-.457-1.31054A1.63562,1.63562,0,0,0,473.208,209.78711Z"/>
        <path class="cls-3" d="M484.18066,217.4248a2.82069,2.82069,0,0,1-.25489-.85253,3.07339,3.07339,0,0,1-2.39941,1.02832,3.37778,3.37778,0,0,1-2.31641-.8086,2.60012,2.60012,0,0,1-.918-2.03906,2.687,2.687,0,0,1,1.12011-2.32031,5.53114,5.53114,0,0,1,3.23926-.81739h1.16895v-.54492a1.56737,1.56737,0,0,0-.33887-1.05469,1.33007,1.33007,0,0,0-1.06738-.3955,1.51481,1.51481,0,0,0-1.00684.30761,1.04468,1.04468,0,0,0-.36426.84375h-2.54a2.55151,2.55151,0,0,1,.50977-1.52929,3.36867,3.36867,0,0,1,1.44141-1.10254,5.25313,5.25313,0,0,1,2.09179-.40039,4.15385,4.15385,0,0,1,2.79.88281,3.09271,3.09271,0,0,1,1.0332,2.4834v4.12207a4.54647,4.54647,0,0,0,.37793,2.04785v.14941Zm-2.10059-1.7666a2.17664,2.17664,0,0,0,1.03711-.251,1.63868,1.63868,0,0,0,.70313-.67188v-1.63476h-.94922q-1.90723,0-2.03028,1.31836l-.00879.14941a1.01687,1.01687,0,0,0,.334.78223A1.29735,1.29735,0,0,0,482.08007,215.6582Z"/>
        <path class="cls-3" d="M487.74511,212.59961a5.73086,5.73086,0,0,1,.99707-3.542,3.2376,3.2376,0,0,1,2.72949-1.31836,2.91264,2.91264,0,0,1,2.29395,1.03711V203.9248h2.54883v13.5H494.0205l-.12305-1.01074a2.989,2.989,0,0,1-2.44335,1.18653,3.22853,3.22853,0,0,1-2.69434-1.32227A5.91708,5.91708,0,0,1,487.74511,212.59961Zm2.54.18945a3.75468,3.75468,0,0,0,.46582,2.05078,1.5168,1.5168,0,0,0,1.35352.71289,1.69857,1.69857,0,0,0,1.66113-.99511V210.7998a1.67565,1.67565,0,0,0-1.64356-.99511Q490.28515,209.80469,490.28515,212.78906Z"/>
        <path class="cls-3" d="M503.2539,214.79688a.81822.81822,0,0,0-.46191-.7334,5.23491,5.23491,0,0,0-1.48047-.4795q-3.39258-.7119-3.39258-2.88281a2.61478,2.61478,0,0,1,1.0498-2.11426,4.24353,4.24353,0,0,1,2.74707-.84765,4.55854,4.55854,0,0,1,2.89551.85254,2.68725,2.68725,0,0,1,1.08594,2.21484h-2.54a1.23174,1.23174,0,0,0-.35156-.90137,1.49185,1.49185,0,0,0-1.09864-.35547,1.52024,1.52024,0,0,0-.99316.29.9156.9156,0,0,0-.35156.73828.78028.78028,0,0,0,.39941.68067,4.091,4.091,0,0,0,1.34961.44922,11.02419,11.02419,0,0,1,1.59961.42578,2.62809,2.62809,0,0,1,2.0127,2.55762,2.4786,2.4786,0,0,1-1.11621,2.10449,4.80843,4.80843,0,0,1-2.88282.80469,5.04631,5.04631,0,0,1-2.123-.42579,3.55391,3.55391,0,0,1-1.45411-1.16992,2.7125,2.7125,0,0,1-.52734-1.60351h2.4082a1.32605,1.32605,0,0,0,.501,1.03711,1.98713,1.98713,0,0,0,1.248.36035,1.84468,1.84468,0,0,0,1.10254-.27637A.864.864,0,0,0,503.2539,214.79688Z"/>
      </g>
    </g>
    <g>
      <circle class="cls-4" cx="120.8118" cy="66.49173" r="52.1709"/>
      <g>
        <path class="cls-3" d="M104.68749,59.39453a1.35212,1.35212,0,0,0-.52734-1.14648,6.917,6.917,0,0,0-1.89844-.84375,13.45363,13.45363,0,0,1-2.1709-.875,3.547,3.547,0,0,1-2.17968-3.17285,3.09332,3.09332,0,0,1,.584-1.85059,3.81882,3.81882,0,0,1,1.67871-1.26953,6.32089,6.32089,0,0,1,2.457-.457,5.7658,5.7658,0,0,1,2.44336.49609,3.89686,3.89686,0,0,1,1.665,1.40234,3.66862,3.66862,0,0,1,.59375,2.05665h-2.63672a1.728,1.728,0,0,0-.55371-1.36719,2.2809,2.2809,0,0,0-1.55566-.48731,2.42541,2.42541,0,0,0-1.50293.40918,1.287,1.287,0,0,0-.53613,1.07617,1.23408,1.23408,0,0,0,.62792,1.0459,7.10458,7.10458,0,0,0,1.85059.791,7.99373,7.99373,0,0,1,3.27832,1.67871A3.34317,3.34317,0,0,1,107.333,59.377a3.0775,3.0775,0,0,1-1.25683,2.60547,5.49584,5.49584,0,0,1-3.38379.94531,6.51869,6.51869,0,0,1-2.68946-.541,4.24956,4.24956,0,0,1-1.85058-1.48047,3.79224,3.79224,0,0,1-.63672-2.17969h2.64551q0,2.11816,2.53125,2.11817a2.46933,2.46933,0,0,0,1.46777-.38184A1.24591,1.24591,0,0,0,104.68749,59.39453Z"/>
        <path class="cls-3" d="M111.249,54.2793a3.17021,3.17021,0,0,1,2.54-1.21289q3.09375,0,3.13769,3.59472V62.752h-2.54v-6.0205a1.76539,1.76539,0,0,0-.35156-1.208,1.50732,1.50732,0,0,0-1.16895-.3916,1.72876,1.72876,0,0,0-1.61718.86132V62.752h-2.54v-13.5h2.54Z"/>
        <path class="cls-3" d="M118.2666,57.90918a5.63986,5.63986,0,0,1,.54492-2.52246,3.98807,3.98807,0,0,1,1.56836-1.71387,4.57882,4.57882,0,0,1,2.37793-.60644,4.32921,4.32921,0,0,1,3.1416,1.17773,4.72709,4.72709,0,0,1,1.3584,3.19922l.01757.65039a4.9717,4.9717,0,0,1-1.22168,3.51172,4.73625,4.73625,0,0,1-6.56152.00391,5.05765,5.05765,0,0,1-1.22558-3.58594Zm2.54.18066a3.55156,3.55156,0,0,0,.50977,2.07227,1.83072,1.83072,0,0,0,2.90039.00879,3.88719,3.88719,0,0,0,.51856-2.2666,3.51968,3.51968,0,0,0-.51856-2.05957,1.685,1.685,0,0,0-1.459-.73047,1.65786,1.65786,0,0,0-1.44141.72656A3.9527,3.9527,0,0,0,120.80663,58.08984Z"/>
        <path class="cls-3" d="M134.0039,55.624a6.90127,6.90127,0,0,0-.91406-.07031,1.86048,1.86048,0,0,0-1.88965.97559V62.752h-2.54V53.24219h2.39941l.07032,1.13379a2.35353,2.35353,0,0,1,2.11816-1.30957,2.66163,2.66163,0,0,1,.791.11425Z"/>
        <path class="cls-3" d="M138.52636,50.9043v2.33789h1.626v1.86328h-1.626v4.74609a1.13325,1.13325,0,0,0,.20215.75586,1.01524,1.01524,0,0,0,.77344.22852,4.05026,4.05026,0,0,0,.74707-.06153v1.92481a5.2292,5.2292,0,0,1-1.53809.22851,2.42522,2.42522,0,0,1-2.72461-2.69824v-5.124h-1.38867V53.24219h1.38867V50.9043Z"/>
        <path class="cls-3" d="M104.90917,73.624a6.90127,6.90127,0,0,0-.91406-.07031,1.86048,1.86048,0,0,0-1.88965.97559v6.22265h-2.54V71.24219h2.39942l.07031,1.13379a2.35354,2.35354,0,0,1,2.11816-1.30957,2.66159,2.66159,0,0,1,.791.11425Z"/>
        <path class="cls-3" d="M110.32812,80.92773a4.66959,4.66959,0,0,1-3.40625-1.2832,4.56086,4.56086,0,0,1-1.31348-3.41894v-.2461a5.74261,5.74261,0,0,1,.55371-2.56152,4.06263,4.06263,0,0,1,1.56836-1.74024,4.40547,4.40547,0,0,1,2.31641-.61132,3.94561,3.94561,0,0,1,3.07129,1.23047,5,5,0,0,1,1.12109,3.48925v1.03711h-6.05566a2.35911,2.35911,0,0,0,.74218,1.49414,2.24631,2.24631,0,0,0,1.56934.5625,2.7417,2.7417,0,0,0,2.294-1.06347l1.248,1.39746a3.8042,3.8042,0,0,1-1.54687,1.26074A5.07526,5.07526,0,0,1,110.32812,80.92773Zm-.29-7.81347a1.58981,1.58981,0,0,0-1.22656.51172A2.65336,2.65336,0,0,0,108.21,75.0918h3.53321v-.20313a1.88843,1.88843,0,0,0-.457-1.31055A1.63561,1.63561,0,0,0,110.03808,73.11426Z"/>
        <path class="cls-3" d="M121.01074,80.75195a2.82067,2.82067,0,0,1-.25489-.85254,3.07337,3.07337,0,0,1-2.39941,1.02832,3.37777,3.37777,0,0,1-2.31641-.80859,2.60013,2.60013,0,0,1-.918-2.03906,2.687,2.687,0,0,1,1.12012-2.32031,5.53114,5.53114,0,0,1,3.23926-.81739h1.16894v-.54492a1.56736,1.56736,0,0,0-.33886-1.05469,1.33008,1.33008,0,0,0-1.06739-.3955,1.51474,1.51474,0,0,0-1.00683.30761,1.04465,1.04465,0,0,0-.36426.84375h-2.54a2.55144,2.55144,0,0,1,.50977-1.52929,3.3687,3.3687,0,0,1,1.4414-1.10254,5.25321,5.25321,0,0,1,2.0918-.40039,4.15385,4.15385,0,0,1,2.79.88281,3.09271,3.09271,0,0,1,1.0332,2.4834v4.12207a4.54647,4.54647,0,0,0,.37793,2.04785v.14941Zm-2.10059-1.7666a2.17676,2.17676,0,0,0,1.03711-.251,1.6386,1.6386,0,0,0,.70312-.67188V76.42773h-.94921q-1.90723,0-2.03028,1.31836l-.00879.14942a1.01685,1.01685,0,0,0,.334.78222A1.2973,1.2973,0,0,0,118.91015,78.98535Z"/>
        <path class="cls-3" d="M124.57519,75.92676a5.73086,5.73086,0,0,1,.99707-3.542,3.23759,3.23759,0,0,1,2.72949-1.31836,2.91264,2.91264,0,0,1,2.29395,1.03711V67.25195h2.54882v13.5h-2.29394l-.12305-1.01074a2.989,2.989,0,0,1-2.44336,1.18652,3.22854,3.22854,0,0,1-2.69433-1.32226A5.91708,5.91708,0,0,1,124.57519,75.92676Zm2.54.18945a3.75468,3.75468,0,0,0,.46582,2.05078,1.5168,1.5168,0,0,0,1.35351.71289,1.69857,1.69857,0,0,0,1.66114-.99511V74.12695a1.67565,1.67565,0,0,0-1.64356-.99511Q127.11523,73.13184,127.11523,76.11621Z"/>
        <path class="cls-3" d="M140.084,78.124a.81824.81824,0,0,0-.46192-.7334,5.23476,5.23476,0,0,0-1.48046-.47949q-3.39258-.71191-3.39258-2.88281a2.61478,2.61478,0,0,1,1.0498-2.11426,4.24353,4.24353,0,0,1,2.74707-.84765,4.55856,4.55856,0,0,1,2.89551.85254,2.68723,2.68723,0,0,1,1.08594,2.21484h-2.54a1.23174,1.23174,0,0,0-.35156-.90137,1.4918,1.4918,0,0,0-1.09864-.35547,1.52022,1.52022,0,0,0-.99316.29.91557.91557,0,0,0-.35156.73828.78029.78029,0,0,0,.39941.68067,4.091,4.091,0,0,0,1.34961.44922,11.02291,11.02291,0,0,1,1.59961.42578,2.62807,2.62807,0,0,1,2.01269,2.55761,2.4786,2.4786,0,0,1-1.11621,2.1045,4.80838,4.80838,0,0,1-2.88281.80468,5.04639,5.04639,0,0,1-2.123-.42578,3.554,3.554,0,0,1-1.4541-1.16992,2.71252,2.71252,0,0,1-.52734-1.60351h2.4082a1.326,1.326,0,0,0,.501,1.0371,1.98707,1.98707,0,0,0,1.248.36036,1.84465,1.84465,0,0,0,1.10253-.27637A.864.864,0,0,0,140.084,78.124Z"/>
      </g>
    </g>
    <g>
      <path d="M296.123,192.22461v4.957l2.97949,1.03711v2.31152l-12.79687-4.834v-1.99512l12.79687-4.84277v2.32031Zm-1.793,4.333v-3.709l-5.30859,1.85449Z"/>
      <path d="M297.57324,183.708a1.93107,1.93107,0,0,0-.46582-1.32715,1.59143,1.59143,0,0,0-1.15137-.5625v-2.0127a3.13266,3.13266,0,0,1,1.65625.55372,3.6251,3.6251,0,0,1,1.21777,1.40624,4.19069,4.19069,0,0,1,.44824,1.916,4.05452,4.05452,0,0,1-1.292,3.16406,5.12443,5.12443,0,0,1-3.56836,1.16895h-.21972a5.04222,5.04222,0,0,1-3.47657-1.16016,4.0206,4.0206,0,0,1-1.30468-3.16406,3.91408,3.91408,0,0,1,.98828-2.76465,3.54785,3.54785,0,0,1,2.59765-1.12012v2.0127a1.95616,1.95616,0,0,0-1.34472.55859,1.79459,1.79459,0,0,0-.52735,1.33106,1.88161,1.88161,0,0,0,.751,1.59961,3.83823,3.83823,0,0,0,2.28125.57129h.34277a3.89234,3.89234,0,0,0,2.30762-.5586A1.87536,1.87536,0,0,0,297.57324,183.708Z"/>
      <path d="M297.57324,174.28613a1.93111,1.93111,0,0,0-.46582-1.32715,1.59143,1.59143,0,0,0-1.15137-.5625v-2.01269a3.13274,3.13274,0,0,1,1.65625.55371,3.62506,3.62506,0,0,1,1.21777,1.40625,4.19069,4.19069,0,0,1,.44824,1.916,4.05455,4.05455,0,0,1-1.292,3.16406,5.12448,5.12448,0,0,1-3.56836,1.16894h-.21972a5.04227,5.04227,0,0,1-3.47657-1.16015,4.02063,4.02063,0,0,1-1.30468-3.16407,3.91407,3.91407,0,0,1,.98828-2.76464,3.54785,3.54785,0,0,1,2.59765-1.12012v2.01269a1.95617,1.95617,0,0,0-1.34472.5586,1.79455,1.79455,0,0,0-.52735,1.33105,1.88159,1.88159,0,0,0,.751,1.59961,3.83823,3.83823,0,0,0,2.28125.57129h.34277a3.89242,3.89242,0,0,0,2.30762-.55859A1.87538,1.87538,0,0,0,297.57324,174.28613Z"/>
      <path d="M298.17089,163.00977a3.31231,3.31231,0,0,1,1.10742,2.67187,2.94966,2.94966,0,0,1-.90527,2.3418,3.84616,3.84616,0,0,1-2.61914.7959h-6.16113v-2.13575h6.13476q1.81054,0,1.81055-1.50293a2.11069,2.11069,0,0,0-1.11621-2.10058h-6.8291v-2.13574h9.50976V162.957Z"/>
      <path d="M291.54394,153.79a5.28454,5.28454,0,0,0-.07031.87012,1.95911,1.95911,0,0,0,1.125,1.97754h6.5039v2.13574h-9.50976v-2.03906l1.06347-.05274a2.40635,2.40635,0,0,1-1.23925-2.14453,1.99943,1.99943,0,0,1,.123-.75586Z"/>
      <path d="M299.10253,147.02246a3.296,3.296,0,0,1-.88769.24609,3.5927,3.5927,0,0,1,.24609,4.834,2.61518,2.61518,0,0,1-2.02148.90527,2.69907,2.69907,0,0,1-2.333-1.1289,5.47472,5.47472,0,0,1-.81348-3.23047v-1.30957h-.624a1.6645,1.6645,0,0,0-1.18164.41308,1.6377,1.6377,0,0,0-.44434,1.25684,1.88683,1.88683,0,0,0,.36426,1.19531,1.13112,1.13112,0,0,0,.92773.46582v2.13574a2.36908,2.36908,0,0,1-1.46289-.51855,3.454,3.454,0,0,1-1.06836-1.41016,4.95737,4.95737,0,0,1-.38671-1.99121,3.99048,3.99048,0,0,1,.83984-2.66308,2.99218,2.99218,0,0,1,2.35937-1.01954h4.28907a4.86081,4.86081,0,0,0,2.04785-.36035h.14941Zm-1.53808,2.34668a2.434,2.434,0,0,0-.30762-1.19141,2.05984,2.05984,0,0,0-.82617-.83886h-1.793v1.15136a3.14823,3.14823,0,0,0,.41308,1.78418,1.33817,1.33817,0,0,0,1.16895.59766,1.24628,1.24628,0,0,0,.98047-.40918A1.5794,1.5794,0,0,0,297.56445,149.36914Z"/>
      <path d="M297.57324,139.05957a1.93109,1.93109,0,0,0-.46582-1.32715,1.59143,1.59143,0,0,0-1.15137-.5625v-2.01269a3.13256,3.13256,0,0,1,1.65625.55371,3.62506,3.62506,0,0,1,1.21777,1.40625,4.19065,4.19065,0,0,1,.44824,1.916,4.05456,4.05456,0,0,1-1.292,3.16407,5.12448,5.12448,0,0,1-3.56836,1.16894h-.21972a5.04222,5.04222,0,0,1-3.47657-1.16016A4.02059,4.02059,0,0,1,289.417,139.042a3.91408,3.91408,0,0,1,.98828-2.76465,3.54784,3.54784,0,0,1,2.59765-1.12011v2.01269a1.95612,1.95612,0,0,0-1.34472.5586,1.79455,1.79455,0,0,0-.52735,1.33105,1.88159,1.88159,0,0,0,.751,1.59961,3.83823,3.83823,0,0,0,2.28125.57129h.34277a3.89242,3.89242,0,0,0,2.30762-.55859A1.87538,1.87538,0,0,0,297.57324,139.05957Z"/>
      <path d="M296.04394,130.21777l-6.45117-1.93359v-2.27637l10.95117,3.7793q2.39941.87012,2.39941,2.95312a3.79118,3.79118,0,0,1-.15918,1.02832H301.124l.02636-.40429a2.08968,2.08968,0,0,0-.29394-1.21778,1.956,1.956,0,0,0-.98828-.6455l-.81641-.30762-9.459,3.33984v-2.30273Z"/>
    </g>
    <g>
      <path d="M250.96386,375.18555h-2.47851v4.92187h-2.22364V367.31055h4.5a5.23216,5.23216,0,0,1,3.41895.99414,3.51476,3.51476,0,0,1,1.2041,2.876,3.61159,3.61159,0,0,1-.61914,2.15137,3.9501,3.9501,0,0,1-1.72754,1.332l2.874,5.3291v.11426h-2.38183Zm-2.47851-1.793h2.28515a2.54607,2.54607,0,0,0,1.75781-.56641,1.97938,1.97938,0,0,0,.63282-1.55176,2.10484,2.10484,0,0,0-.585-1.59082,2.48156,2.48156,0,0,0-1.74415-.58007h-2.34667Z"/>
      <path d="M261.47558,380.2832a4.41633,4.41633,0,0,1-3.292-1.27929,4.636,4.636,0,0,1-1.26074-3.40528V375.335a5.68814,5.68814,0,0,1,.5498-2.54394,4.16862,4.16862,0,0,1,1.542-1.74512,4.07784,4.07784,0,0,1,2.21485-.624,3.73151,3.73151,0,0,1,3.001,1.23925A5.24032,5.24032,0,0,1,265.29,375.168v.86133h-6.21386a2.85141,2.85141,0,0,0,.7871,1.86328,2.359,2.359,0,0,0,1.73536.68554,2.89191,2.89191,0,0,0,2.39062-1.18652l1.15137,1.09863a3.83763,3.83763,0,0,1-1.52539,1.32227A4.772,4.772,0,0,1,261.47558,380.2832Zm-.25488-8.14746a1.80089,1.80089,0,0,0-1.41993.61524,3.19624,3.19624,0,0,0-.68945,1.71386h4.06934v-.1582a2.59446,2.59446,0,0,0-.57129-1.62109A1.78512,1.78512,0,0,0,261.2207,372.13574Z"/>
      <path d="M272.6289,380.10742a3.296,3.296,0,0,1-.24609-.88769,3.5927,3.5927,0,0,1-4.834.24609,2.61518,2.61518,0,0,1-.90527-2.02148,2.69907,2.69907,0,0,1,1.1289-2.333,5.47472,5.47472,0,0,1,3.23047-.81348h1.30957v-.624a1.6645,1.6645,0,0,0-.41308-1.18164,1.6377,1.6377,0,0,0-1.25684-.44434,1.88683,1.88683,0,0,0-1.19531.36426,1.13112,1.13112,0,0,0-.46582.92773H266.8457a2.36906,2.36906,0,0,1,.51855-1.46289,3.454,3.454,0,0,1,1.41016-1.06836,4.95737,4.95737,0,0,1,1.99121-.38671,3.99047,3.99047,0,0,1,2.66308.83984,2.99218,2.99218,0,0,1,1.01954,2.35937v4.28907a4.86084,4.86084,0,0,0,.36035,2.04785v.14941Zm-2.34668-1.53808a2.434,2.434,0,0,0,1.19141-.30762,2.05984,2.05984,0,0,0,.83886-.82617v-1.793h-1.15136a3.14823,3.14823,0,0,0-1.78418.41308,1.33816,1.33816,0,0,0-.59766,1.16895,1.24628,1.24628,0,0,0,.40918.98047A1.5794,1.5794,0,0,0,270.28222,378.56934Z"/>
      <path d="M276.28515,375.28223a5.65035,5.65035,0,0,1,1.01953-3.52832,3.26454,3.26454,0,0,1,2.7334-1.332,3.10393,3.10393,0,0,1,2.44336,1.05468v-4.86914h2.13574v13.5h-1.93359l-.10547-.98437a3.14834,3.14834,0,0,1-2.55762,1.16015,3.24923,3.24923,0,0,1-2.70312-1.34472A5.86071,5.86071,0,0,1,276.28515,375.28223Zm2.13574.18457a3.95236,3.95236,0,0,0,.5586,2.26367,1.80853,1.80853,0,0,0,1.58593.8125,2.017,2.017,0,0,0,1.916-1.169v-4.06054a1.98632,1.98632,0,0,0-1.89844-1.14258,1.826,1.826,0,0,0-1.59961.82129A4.4123,4.4123,0,0,0,278.42089,375.4668Z"/>
      <path d="M293.5996,380.10742h-2.13574v-13.5h2.13574Z"/>
      <path d="M300.1123,380.2832a4.41633,4.41633,0,0,1-3.292-1.27929,4.636,4.636,0,0,1-1.26075-3.40528V375.335a5.68814,5.68814,0,0,1,.54981-2.54394,4.16862,4.16862,0,0,1,1.542-1.74512,4.07783,4.07783,0,0,1,2.21484-.624,3.73152,3.73152,0,0,1,3.001,1.23925,5.24032,5.24032,0,0,1,1.05957,3.50684v.86133h-6.21387a2.85147,2.85147,0,0,0,.78711,1.86328,2.359,2.359,0,0,0,1.73536.68554,2.89191,2.89191,0,0,0,2.39062-1.18652l1.15137,1.09863a3.83763,3.83763,0,0,1-1.52539,1.32227A4.77208,4.77208,0,0,1,300.1123,380.2832Zm-.25488-8.14746a1.80089,1.80089,0,0,0-1.41993.61524,3.19624,3.19624,0,0,0-.68945,1.71386h4.06934v-.1582a2.59446,2.59446,0,0,0-.57129-1.62109A1.78512,1.78512,0,0,0,299.85742,372.13574Z"/>
      <path d="M307.56542,370.59766l.06153,1.09863a3.41926,3.41926,0,0,1,2.76855-1.27441q2.9707,0,3.02344,3.40136v6.28418H311.2832v-6.16113a1.96144,1.96144,0,0,0-.3916-1.34082,1.64755,1.64755,0,0,0-1.27833-.43457,2.058,2.058,0,0,0-1.9248,1.16894v6.76758h-2.13574v-9.50976Z"/>
      <path d="M315.2207,375.28223a5.57087,5.57087,0,0,1,1.041-3.53809,3.34718,3.34718,0,0,1,2.76465-1.32226,3.13158,3.13158,0,0,1,2.55762,1.13378l.09668-.958h1.9248v9.21972a3.83524,3.83524,0,0,1-1.16406,2.95313,4.43852,4.43852,0,0,1-3.14258,1.08105,5.04319,5.04319,0,0,1-2.043-.43554,3.61761,3.61761,0,0,1-1.5166-1.1377l1.01074-1.2832a3.05259,3.05259,0,0,0,2.42578,1.16894,2.35941,2.35941,0,0,0,1.67872-.57617,2.20508,2.20508,0,0,0,.61523-1.69141v-.6416a3.1444,3.1444,0,0,1-2.46094,1.02832,3.33571,3.33571,0,0,1-2.72949-1.32715A5.74207,5.74207,0,0,1,315.2207,375.28223Zm2.12695.18457a3.825,3.825,0,0,0,.584,2.2539,1.87841,1.87841,0,0,0,1.62207.82227,2.05537,2.05537,0,0,0,1.916-1.10742V373.252a2.02585,2.02585,0,0,0-1.89844-1.08105,1.88759,1.88759,0,0,0-1.63965.835A4.28725,4.28725,0,0,0,317.34765,375.4668Z"/>
      <path d="M328.4746,368.28613v2.31153h1.67871v1.582H328.4746v5.30859a1.16517,1.16517,0,0,0,.21582.78711.99581.99581,0,0,0,.76856.24121,3.29026,3.29026,0,0,0,.74707-.08789v1.65234a5.25991,5.25991,0,0,1-1.40625.20215q-2.46094,0-2.46094-2.71582v-5.38769h-1.56445v-1.582h1.56445v-2.31153Z"/>
      <path d="M333.88867,371.63477a3.34288,3.34288,0,0,1,2.6455-1.21289q3.041,0,3.085,3.47167v6.21387h-2.13574v-6.13476a1.875,1.875,0,0,0-.42676-1.39258,1.73712,1.73712,0,0,0-1.25195-.40918,2.05727,2.05727,0,0,0-1.916,1.14258v6.79394h-2.13575v-13.5h2.13575Z"/>
      <path d="M346.334,374.91309a13.55362,13.55362,0,0,1,.53222-3.81446,11.05643,11.05643,0,0,1,1.58594-3.32226,6.749,6.749,0,0,1,2.18848-2.10938l.334,1.07227a6.99118,6.99118,0,0,0-2.10449,3.00586,13.00851,13.00851,0,0,0-.90137,4.52636l-.00879.74707a13.09885,13.09885,0,0,0,1.23926,5.88868,7.03324,7.03324,0,0,0,1.77539,2.33789l-.334.99316a6.96562,6.96562,0,0,1-2.23242-2.17969A12.21661,12.21661,0,0,1,346.334,374.91309Z"/>
      <path d="M355.20214,375.7041l-1.01953,1.06348v3.33984h-1.626v-13.5h1.626v8.165l.87012-1.0459,2.96191-3.1289h1.97754l-3.70019,3.97265,4.13086,5.53711h-1.90723Z"/>
      <path d="M369.72167,375.458a5.65591,5.65591,0,0,1-1.002,3.50293,3.201,3.201,0,0,1-2.68945,1.32226,3.31514,3.31514,0,0,1-2.78614-1.27441l-.0791,1.09863h-1.49414v-13.5h1.626v5.03613a3.29626,3.29626,0,0,1,2.71582-1.22167,3.223,3.223,0,0,1,2.7207,1.30957,5.83042,5.83042,0,0,1,.98828,3.58593Zm-1.626-.18457a4.39389,4.39389,0,0,0-.6416-2.56641,2.124,2.124,0,0,0-1.84571-.90527,2.38722,2.38722,0,0,0-2.31152,1.49414v4.11328a2.45388,2.45388,0,0,0,2.3291,1.49414,2.11231,2.11231,0,0,0,1.81934-.90527A4.67243,4.67243,0,0,0,368.0957,375.27344Z"/>
      <path d="M375.52245,375.001a13.55,13.55,0,0,1-.51464,3.75683,11.09931,11.09931,0,0,1-1.57227,3.31836,6.90349,6.90349,0,0,1-2.21973,2.16211l-.34277-.99316a7.07571,7.07571,0,0,0,2.17578-3.22168,13.95123,13.95123,0,0,0,.83887-4.84668v-.28125a14.47892,14.47892,0,0,0-.38672-3.43262,11.595,11.595,0,0,0-1.07715-2.84277,6.56628,6.56628,0,0,0-1.55078-1.96l.34277-.99317a6.865,6.865,0,0,1,2.21,2.14453A11.16035,11.16035,0,0,1,375,371.125,13.94509,13.94509,0,0,1,375.52245,375.001Z"/>
    </g>
    <g>
      <path class="cls-5" d="M263.30663,31.044h-1.60058V20.43359l-3.21,1.17871V20.166l4.56152-1.71192h.249Z"/>
      <path class="cls-5" d="M275.65234,25.7002a7.28139,7.28139,0,0,1-.95508,4.15625,3.97,3.97,0,0,1-5.95508.03027,6.91472,6.91472,0,0,1-.999-3.97168v-2.126a7.10907,7.10907,0,0,1,.95605-4.10449,4.03972,4.03972,0,0,1,5.97168-.04785,6.87757,6.87757,0,0,1,.98145,3.998Zm-1.5918-2.17774a5.83179,5.83179,0,0,0-.56836-2.94726,1.95466,1.95466,0,0,0-1.79883-.92481,1.9287,1.9287,0,0,0-1.78125.9209,5.685,5.685,0,0,0-.57617,2.831v2.54688a5.931,5.931,0,0,0,.58887,2.999,1.95248,1.95248,0,0,0,1.78613.96875,1.9256,1.9256,0,0,0,1.751-.91211,5.7149,5.7149,0,0,0,.59863-2.875Z"/>
      <path class="cls-5" d="M285.37206,25.7002a7.28148,7.28148,0,0,1-.95507,4.15625,3.97,3.97,0,0,1-5.95508.03027,6.91471,6.91471,0,0,1-.999-3.97168v-2.126a7.109,7.109,0,0,1,.95606-4.10449,4.03972,4.03972,0,0,1,5.97168-.04785,6.8775,6.8775,0,0,1,.98144,3.998Zm-1.59179-2.17774a5.8319,5.8319,0,0,0-.56836-2.94726,1.95467,1.95467,0,0,0-1.79883-.92481,1.9287,1.9287,0,0,0-1.78125.9209,5.6849,5.6849,0,0,0-.57617,2.831v2.54688a5.93117,5.93117,0,0,0,.58886,2.999,1.9525,1.9525,0,0,0,1.78614.96875,1.92557,1.92557,0,0,0,1.751-.91211,5.71478,5.71478,0,0,0,.59864-2.875Z"/>
      <path class="cls-5" d="M287.09765,20.92383a2.54647,2.54647,0,0,1,.71875-1.85938,2.699,2.699,0,0,1,3.7002.00489,2.629,2.629,0,0,1,.71,1.90625v.61035a2.50956,2.50956,0,0,1-.71778,1.85449,2.477,2.477,0,0,1-1.8291.71875,2.5314,2.5314,0,0,1-1.85058-.71875,2.56239,2.56239,0,0,1-.73145-1.91406Zm1.1875.65918a1.63263,1.63263,0,0,0,.37891,1.1084,1.27936,1.27936,0,0,0,1.01562.43554,1.25222,1.25222,0,0,0,.98535-.42285,1.67878,1.67878,0,0,0,.374-1.15625V20.919a1.66887,1.66887,0,0,0-.37012-1.11329,1.37312,1.37312,0,0,0-2.01367,0,1.72677,1.72677,0,0,0-.37012,1.14746Zm1.75586,8.51465-.90332-.56836,6.11816-9.793.9043.56738Zm3.1582-2.126a2.5265,2.5265,0,0,1,.71875-1.85449,2.7165,2.7165,0,0,1,3.69629-.00391,2.594,2.594,0,0,1,.72266,1.91895v.61035a2.52494,2.52494,0,0,1-.71875,1.85449,2.46984,2.46984,0,0,1-1.83692.72754,2.52983,2.52983,0,0,1-1.85058-.71875,2.56239,2.56239,0,0,1-.73145-1.91406Zm1.1875.668a1.6407,1.6407,0,0,0,.37891,1.11719,1.278,1.278,0,0,0,1.01562.43554,1.24112,1.24112,0,0,0,.98926-.42773,1.7077,1.7077,0,0,0,.37012-1.16016V27.9668a1.63744,1.63744,0,0,0-.374-1.11231,1.26041,1.26041,0,0,0-1.00293-.43164,1.27578,1.27578,0,0,0-.99415.42676,1.6625,1.6625,0,0,0-.38281,1.15137Z"/>
    </g>
    <g>
      <path class="cls-5" d="M275.39355,326.12793a2.91116,2.91116,0,0,1-.49414,1.66992,3.37116,3.37116,0,0,1-1.33887,1.14453,3.59494,3.59494,0,0,1,1.55371,1.23047,3.0941,3.0941,0,0,1,.57227,1.833,3.2735,3.2735,0,0,1-1.09668,2.58984,4.81156,4.81156,0,0,1-5.78321-.0039,3.28768,3.28768,0,0,1-1.08886-2.58594,3.18869,3.18869,0,0,1,.55468-1.833,3.46045,3.46045,0,0,1,1.53614-1.23926,3.28478,3.28478,0,0,1-1.31641-1.14453,2.94931,2.94931,0,0,1-.48144-1.66113,3.238,3.238,0,0,1,1.01464-2.5127,4.31132,4.31132,0,0,1,5.34864,0A3.23133,3.23133,0,0,1,275.39355,326.12793Zm-1.29883,5.84375a2.3104,2.3104,0,0,0-.667-1.71289,2.36666,2.36666,0,0,0-1.74317-.66309,2.24175,2.24175,0,0,0-2.375,2.376,2.22314,2.22314,0,0,0,.63282,1.67773,2.82579,2.82579,0,0,0,3.51562-.0039A2.22243,2.22243,0,0,0,274.09472,331.97168Zm-2.39258-7.97754a2.05459,2.05459,0,0,0-1.51855.58008,2.40378,2.40378,0,0,0-.00879,3.124,2.27236,2.27236,0,0,0,3.05469,0,2.35553,2.35553,0,0,0-.02149-3.10254A2.02424,2.02424,0,0,0,271.70214,323.99414Z"/>
      <path class="cls-5" d="M285.373,330.044a7.28139,7.28139,0,0,1-.95508,4.15625,3.97,3.97,0,0,1-5.95508.03027,6.9148,6.9148,0,0,1-.999-3.97168v-2.126a7.109,7.109,0,0,1,.95606-4.10449,4.03972,4.03972,0,0,1,5.97168-.04785,6.87765,6.87765,0,0,1,.98144,3.998Zm-1.5918-2.17774a5.83179,5.83179,0,0,0-.56836-2.94726,1.95464,1.95464,0,0,0-1.79882-.92481,1.92868,1.92868,0,0,0-1.78125.9209,5.685,5.685,0,0,0-.57618,2.83105V330.293a5.931,5.931,0,0,0,.58887,2.999,1.95249,1.95249,0,0,0,1.78613.96875,1.92559,1.92559,0,0,0,1.751-.91211,5.71469,5.71469,0,0,0,.59863-2.875Z"/>
      <path class="cls-5" d="M287.09765,325.26758a2.54645,2.54645,0,0,1,.71875-1.85938,2.699,2.699,0,0,1,3.7002.00489,2.629,2.629,0,0,1,.71,1.90625v.61035a2.50956,2.50956,0,0,1-.71778,1.85449,2.477,2.477,0,0,1-1.8291.71875,2.5314,2.5314,0,0,1-1.85058-.71875,2.56239,2.56239,0,0,1-.73145-1.91406Zm1.1875.65918a1.63263,1.63263,0,0,0,.37891,1.1084,1.27936,1.27936,0,0,0,1.01562.43554,1.25222,1.25222,0,0,0,.98535-.42285,1.67878,1.67878,0,0,0,.374-1.15625v-.6289a1.66887,1.66887,0,0,0-.37012-1.11329,1.37312,1.37312,0,0,0-2.01367,0,1.72678,1.72678,0,0,0-.37012,1.14747Zm1.75586,8.51465-.90332-.56836,6.11816-9.793.9043.56738Zm3.1582-2.126a2.5265,2.5265,0,0,1,.71875-1.85449,2.7165,2.7165,0,0,1,3.69629-.00391,2.594,2.594,0,0,1,.72266,1.919v.61035a2.52494,2.52494,0,0,1-.71875,1.85449,2.46984,2.46984,0,0,1-1.83692.72754,2.52983,2.52983,0,0,1-1.85058-.71875,2.56239,2.56239,0,0,1-.73145-1.91406Zm1.1875.668a1.6407,1.6407,0,0,0,.37891,1.11719,1.278,1.278,0,0,0,1.01562.43554,1.24112,1.24112,0,0,0,.98926-.42773,1.7077,1.7077,0,0,0,.37012-1.16016v-.63769a1.63744,1.63744,0,0,0-.374-1.11231,1.26041,1.26041,0,0,0-1.00293-.43164,1.27578,1.27578,0,0,0-.99415.42676,1.6625,1.6625,0,0,0-.38281,1.15137Z"/>
    </g>
    <path class="cls-5" d="M105.11718,374.76367a7.28137,7.28137,0,0,1-.95508,4.15625,3.96995,3.96995,0,0,1-5.95508.03028,6.91482,6.91482,0,0,1-.999-3.97168v-2.126a7.109,7.109,0,0,1,.95606-4.10449,4.0397,4.0397,0,0,1,5.97168-.04785,6.87759,6.87759,0,0,1,.98144,3.998Zm-1.5918-2.17773a5.83186,5.83186,0,0,0-.56836-2.94727,1.95463,1.95463,0,0,0-1.79882-.9248,1.92868,1.92868,0,0,0-1.78125.9209,5.685,5.685,0,0,0-.57618,2.83105v2.54688a5.931,5.931,0,0,0,.58887,2.999,1.95249,1.95249,0,0,0,1.78613.96875,1.92558,1.92558,0,0,0,1.751-.91211,5.71471,5.71471,0,0,0,.59863-2.875Z"/>
    <g>
      <path class="cls-5" d="M508.51074,373.8252l.63671-6.248h6.41993v1.47168H510.499l-.37891,3.417a4.04756,4.04756,0,0,1,2.0918-.542,3.45634,3.45634,0,0,1,2.71875,1.13086,4.43348,4.43348,0,0,1,1.00683,3.05957,4.28417,4.28417,0,0,1-1.04492,3.05078,3.812,3.812,0,0,1-2.92187,1.11426,3.95934,3.95934,0,0,1-2.71094-.9209,3.67332,3.67332,0,0,1-1.19629-2.54688h1.50586a2.53,2.53,0,0,0,.7666,1.62207,2.37978,2.37978,0,0,0,1.63477.54688,2.14633,2.14633,0,0,0,1.74218-.75781,3.16488,3.16488,0,0,0,.63282-2.09082,2.9073,2.9073,0,0,0-.68457-2.01856,2.326,2.326,0,0,0-1.81934-.76172,2.62986,2.62986,0,0,0-1.63574.45606l-.4209.34472Z"/>
      <path class="cls-5" d="M525.35742,374.76367a7.28137,7.28137,0,0,1-.95508,4.15625,3.96995,3.96995,0,0,1-5.95508.03028,6.91466,6.91466,0,0,1-.999-3.97168v-2.126a7.109,7.109,0,0,1,.956-4.10449,4.0397,4.0397,0,0,1,5.97168-.04785,6.87751,6.87751,0,0,1,.98145,3.998Zm-1.5918-2.17773a5.83186,5.83186,0,0,0-.56836-2.94727,1.95466,1.95466,0,0,0-1.79883-.9248,1.9287,1.9287,0,0,0-1.78125.9209,5.68487,5.68487,0,0,0-.57617,2.83105v2.54688a5.931,5.931,0,0,0,.58887,2.999,1.95248,1.95248,0,0,0,1.78613.96875,1.9256,1.9256,0,0,0,1.751-.91211,5.71493,5.71493,0,0,0,.59863-2.875Z"/>
    </g>
    <line class="cls-6" x1="312.80612" y1="14.32083" x2="312.80612" y2="347.69056"/>
    <line class="cls-6" x1="526.35342" y1="347.69056" x2="97.80855" y2="347.69056"/>
  </g>
</svg>
